Simulation
nRows=35
nColumns=15
endheader
time  TH_x TH_y TH_z SC_y  SC_z  SC_x  AC_y  AC_z  AC_x  GH_y  GH_z  GH_yy  EL_x  PS_y
4.8020000000000005  0.000000  0.000000  0.000000  -40.73775370598749  11.374677346562022  17.709965717062627  51.74463327496831  4.162377883769548  -3.496703126988695  16.29453166006576  77.76134841464389  -16.780659154838066  13.625071270479705  120.000000
4.850020000000001  0.000000  0.000000  0.000000  -40.756636441735445  11.357677322706508  18.98683668974772  51.87924872545  3.4467477132770092  -4.104773536211933  16.192973674150714  77.73010728765047  -16.751423183049003  13.57810928171326  120.000000
4.898040000000001  0.000000  0.000000  0.000000  -40.55830609078514  11.189412091751105  19.995376691818578  52.03901537986386  2.663478719845683  -4.775511906274651  16.110955726653295  77.57821708836686  -16.379022833466443  13.427078783249588  120.000000
4.946060000000001  0.000000  0.000000  0.000000  -40.14778255416824  10.885113625384728  20.725060783390653  52.21236840644582  1.8178994573319671  -5.49140849828347  16.068523565221422  77.2186912725938  -15.718676685880455  13.21784859479049  120.000000
4.99408  0.000000  0.000000  0.000000  -39.53904171874399  10.46156922058935  21.174617569431142  52.382085700784685  0.9295054147378657  -6.2284156645058975  16.078506993385375  76.55829321401256  -14.832056992117117  12.991232370920969  120.000000
5.0421000000000005  0.000000  0.000000  0.000000  -38.75222276237958  9.934278211631613  21.346671813632344  52.52997546669006  0.02597741714719823  -6.9606221012007286  16.140351644536494  75.52443216322473  -13.7795123980499  12.778111417254548  120.000000
5.090120000000001  0.000000  0.000000  0.000000  -37.81306776948673  9.319472366578651  21.249359575772523  52.638956475834554  -0.8570385208811464  -7.661034922808308  16.246271399954953  74.06477897944687  -12.619055243322347  12.600015659319203  120.000000
5.138140000000001  0.000000  0.000000  0.000000  -36.75262176124544  8.636862743735685  20.895726571368183  52.69365468710631  -1.6786404408769438  -8.303446812034656  16.388785367240853  72.14694192214867  -11.40212036653754  12.470847517219038  120.000000
5.186160000000001  0.000000  0.000000  0.000000  -35.60653117225131  7.91110591898015  20.303438825108973  52.680204213808125  -2.396023757480969  -8.865009837614751  16.567545936830577  69.75926537527405  -10.169294459126608  12.395108050452363  120.000000
5.234180000000001  0.000000  0.000000  0.000000  -34.41283514537762  7.171930973297281  19.495327657335835  52.586091544426054  -2.9682684002775845  -9.329575949614911  16.794867109959654  66.91248974834637  -8.946008520723172  12.364943112222196  120.000000
5.2822000000000005  0.000000  0.000000  0.000000  -33.20717941236155  6.451321624524665  18.5003584640619  52.40222465450399  -3.3607053314734556  -9.689409469802698  17.099914088108278  63.64160581670215  -7.7435676419690305  12.36084491988951  120.000000
5.330220000000001  0.000000  0.000000  0.000000  -32.018960110647555  5.778587336030889  17.354292583344836  52.12577720623069  -3.5494474308172337  -9.946516326963648  17.52959025768493  60.00633980631506  -6.565666066824947  12.35791110830226  120.000000
5.378240000000001  0.000000  0.000000  0.000000  -30.87211401490519  5.173405306022482  16.10217950308779  51.75972729442329  -3.5283213538751372  -10.115419474189826  18.143627270980232  56.08863194087415  -5.418335467882892  12.333665976186632  120.000000
5.426260000000001  0.000000  0.000000  0.000000  -29.7889510212749  4.641775334155717  14.802656547971914  51.30966868670435  -3.3158374635540397  -10.23071374981937  19.007912146290995  51.98915148154969  -4.319565959811143  12.276677172115935  120.000000
5.474280000000001  0.000000  0.000000  0.000000  -28.79778215623329  4.187456933917349  13.51263990955228  50.794148216762004  -2.9414038830965374  -10.316800634713223  20.18173470438683  47.809139217504864  -3.3017090898002133  12.189454573893276  120.000000
5.5223  0.000000  0.000000  0.000000  -27.935735613316364  3.8247115991097895  12.267259503007603  50.25436245194352  -2.424463969248552  -10.351377159104665  21.705392030777773  43.63285620171553  -2.404974067050098  12.084368018052606  120.000000
5.570320000000001  0.000000  0.000000  0.000000  -27.236911523553466  3.569834281918072  11.092044657543733  49.73665461284606  -1.7837388430520154  -10.300720457644921  23.606429588016283  39.53832314554924  -1.6751772793215243  11.982778621495891  120.000000
5.618340000000001  0.000000  0.000000  0.000000  -26.720288376653063  3.428453648887045  10.01209811657418  49.27555618757187  -1.046925332031787  -10.149543879704773  25.905808418493443  35.60463558827897  -1.1603292851248603  11.910792260909172  120.000000
5.666360000000001  0.000000  0.000000  0.000000  -26.389023603680883  3.3947760462146053  9.044996762613378  48.89201389869746  -0.24387986251256502  -9.892531709328159  28.609533155646535  31.903053009577565  -0.8964875043945083  11.892947259852178  120.000000
5.714380000000001  0.000000  0.000000  0.000000  -26.23073856179324  3.4567318473005257  8.196180318224283  48.59721960748271  0.5968096770810426  -9.533736112004057  31.700570677360776  28.489199130814765  -0.8955774083207094  11.94952480134966  120.000000
5.762400000000001  0.000000  0.000000  0.000000  -26.219063683871035  3.5957518215810835  7.459742429869116  48.39646259021083  1.4486966227975393  -9.084472603712156  35.142984974724776  25.39810211630352  -1.151554272557952  12.095475621037604  120.000000
5.810420000000001  0.000000  0.000000  0.000000  -26.318559400340224  3.7878653027996636  6.824393451534198  48.29005273366515  2.289863783183572  -8.558832532937194  38.88997116494596  22.644970017612746  -1.6528073347877241  12.340700983677321  120.000000
5.858440000000001  0.000000  0.000000  0.000000  -26.49272911518921  4.0106055566236165  6.27791249653476  48.27468640041601  3.1048031223673576  -7.972925123741475  42.89368302345162  20.2312170397006  -2.3959086614621325  12.688535642585023  120.000000
5.906460000000001  0.000000  0.000000  0.000000  -26.71119531897962  4.2449100888640645  5.809472641380941  48.340487383184474  3.883394552146092  -7.343635189284413  47.11564997698573  18.14955947030597  -3.398437376303705  13.13274826825334  120.000000
5.954480000000001  0.000000  0.000000  0.000000  -26.95268313411145  4.477097623652  5.409846007908546  48.4701216227225  4.620872635806667  -6.689387767692673  51.529587642299276  16.388276172294045  -4.699761302918649  13.65745595881899  120.000000
6.002500000000001  0.000000  0.000000  0.000000  -27.2035680830807  4.7018703303361224  5.069624212601843  48.643430038052436  5.318251046265922  -6.0314787777177585  56.1075697632263  14.934147683265975  -6.340160802947577  14.239846293594065  120.000000
6.050520000000001  0.000000  0.000000  0.000000  -27.45626573572281  4.918582060201311  4.778876957554947  48.83626374619405  5.979687167671843  -5.390436087996223  60.7913890112342  13.768592703481538  -8.321903046341896  14.852751146425243  120.000000
6.098540000000001  0.000000  0.000000  0.000000  -27.707795369758585  5.126747471200218  4.52784720093087  49.02259269675153  6.609523151993789  -4.782797681256732  65.47752733151447  12.864116222116905  -10.584111573970606  15.466098205900574  120.000000
6.146560000000001  0.000000  0.000000  0.000000  -27.95558365280953  5.325388128124882  4.307117479276258  49.18191517609655  7.210769465651117  -4.221450007099969  70.02814650919778  12.185147784263558  -13.007922017381892  16.048139388938477  120.000000
6.194580000000001  0.000000  0.000000  0.000000  -28.19757626654073  5.51137839477564  4.107348141448501  49.30144168210958  7.7826085440704595  -3.7158436113814166  74.29843102197611  11.689205739352946  -15.443965239362273  16.566271711452423  120.000000
6.242600000000001  0.000000  0.000000  0.000000  -28.43297415970806  5.678728659556463  3.9169819945407025  49.375876536535294  8.319330347552887  -3.2716835552081225  78.16284174382413  11.33094795382163  -17.744101584437566  16.99087135517631  120.000000
6.2906200000000005  0.000000  0.000000  0.000000  -28.659264984146727  5.820618323885077  3.7221899450195766  49.407955709360074  8.81180725383536  -2.8898301655719747  81.53042904763926  11.068418733888285  -19.78218759001802  17.303419674156423  120.000000
6.338640000000001  0.000000  0.000000  0.000000  -28.86995045663953  5.930185961040619  3.5092497170204684  49.406448538651446  9.24965701969896  -2.566942211169306  84.34380451789657  10.866759285527312  -21.457573505875036  17.503480493701748  120.000000
6.386660000000001  0.000000  0.000000  0.000000  -29.052963994623802  6.002391405215093  3.266439746773759  49.38278188892661  9.622944077250299  -2.296449456910394  86.56779147098341  10.699395341512169  -22.688096424778806  17.611206313514863  120.000000
6.434680000000001  0.000000  0.000000  0.000000  -29.19018068282063  6.035114003205201  2.9856295228769625  49.34882772109345  9.924489464633574  -2.0693939602862015  88.17674783903482  10.549214179767707  -23.40226491200465  17.662357832372038  120.000000
